<mxfile host="app.diagrams.net" modified="2024-04-05T11:20:45.534Z" agent="Mozilla/5.0 (Windows NT 10.0; Win64; x64) AppleWebKit/537.36 (KHTML, like Gecko) Chrome/123.0.0.0 Safari/537.36" etag="pp2R_pH6EZxFmvk-2uv7" version="24.2.2" type="device" pages="2">
  <diagram name=" usecase ATM" id="L0GNS0dfh5heHh-XYEum">
    <mxGraphModel dx="794" dy="492" grid="1" gridSize="10" guides="1" tooltips="1" connect="1" arrows="1" fold="1" page="1" pageScale="1" pageWidth="850" pageHeight="1100" math="0" shadow="0">
      <root>
        <mxCell id="0" />
        <mxCell id="1" parent="0" />
        <mxCell id="Q07mMfZoILX9xO7GnNqe-24" style="edgeStyle=orthogonalEdgeStyle;rounded=0;orthogonalLoop=1;jettySize=auto;html=1;" parent="1" source="Q07mMfZoILX9xO7GnNqe-5" target="Q07mMfZoILX9xO7GnNqe-20" edge="1">
          <mxGeometry relative="1" as="geometry">
            <mxPoint x="160" y="240" as="targetPoint" />
          </mxGeometry>
        </mxCell>
        <mxCell id="Q07mMfZoILX9xO7GnNqe-5" value="customer" style="shape=umlActor;verticalLabelPosition=bottom;verticalAlign=top;html=1;" parent="1" vertex="1">
          <mxGeometry x="70" y="210" width="30" height="60" as="geometry" />
        </mxCell>
        <mxCell id="Q07mMfZoILX9xO7GnNqe-6" value="ENTER PIN" style="ellipse;whiteSpace=wrap;html=1;" parent="1" vertex="1">
          <mxGeometry x="365" y="40" width="120" height="80" as="geometry" />
        </mxCell>
        <mxCell id="Q07mMfZoILX9xO7GnNqe-7" value="SELECT LANGUAGE" style="ellipse;whiteSpace=wrap;html=1;" parent="1" vertex="1">
          <mxGeometry x="365" y="160" width="120" height="80" as="geometry" />
        </mxCell>
        <mxCell id="Q07mMfZoILX9xO7GnNqe-29" style="edgeStyle=orthogonalEdgeStyle;rounded=0;orthogonalLoop=1;jettySize=auto;html=1;entryX=0;entryY=0.5;entryDx=0;entryDy=0;" parent="1" source="Q07mMfZoILX9xO7GnNqe-8" target="Q07mMfZoILX9xO7GnNqe-21" edge="1">
          <mxGeometry relative="1" as="geometry" />
        </mxCell>
        <mxCell id="Q07mMfZoILX9xO7GnNqe-8" value="ENTER Withdrawal Amount" style="ellipse;whiteSpace=wrap;html=1;" parent="1" vertex="1">
          <mxGeometry x="365" y="390" width="120" height="80" as="geometry" />
        </mxCell>
        <mxCell id="Q07mMfZoILX9xO7GnNqe-9" value="SELECT Withdrawal Option" style="ellipse;whiteSpace=wrap;html=1;" parent="1" vertex="1">
          <mxGeometry x="365" y="280" width="120" height="80" as="geometry" />
        </mxCell>
        <mxCell id="Q07mMfZoILX9xO7GnNqe-31" value="" style="edgeStyle=orthogonalEdgeStyle;rounded=0;orthogonalLoop=1;jettySize=auto;html=1;" parent="1" source="Q07mMfZoILX9xO7GnNqe-17" target="Q07mMfZoILX9xO7GnNqe-19" edge="1">
          <mxGeometry relative="1" as="geometry" />
        </mxCell>
        <mxCell id="Q07mMfZoILX9xO7GnNqe-17" value="PRINT RECEIPT" style="ellipse;whiteSpace=wrap;html=1;" parent="1" vertex="1">
          <mxGeometry x="570" y="160" width="120" height="80" as="geometry" />
        </mxCell>
        <mxCell id="Q07mMfZoILX9xO7GnNqe-19" value="END TRANSACTION" style="ellipse;whiteSpace=wrap;html=1;" parent="1" vertex="1">
          <mxGeometry x="570" y="280" width="120" height="80" as="geometry" />
        </mxCell>
        <mxCell id="Q07mMfZoILX9xO7GnNqe-20" value="INSERT CARD" style="ellipse;whiteSpace=wrap;html=1;" parent="1" vertex="1">
          <mxGeometry x="140" y="200" width="120" height="80" as="geometry" />
        </mxCell>
        <mxCell id="Q07mMfZoILX9xO7GnNqe-30" value="" style="edgeStyle=orthogonalEdgeStyle;rounded=0;orthogonalLoop=1;jettySize=auto;html=1;" parent="1" source="Q07mMfZoILX9xO7GnNqe-21" target="Q07mMfZoILX9xO7GnNqe-17" edge="1">
          <mxGeometry relative="1" as="geometry" />
        </mxCell>
        <mxCell id="Q07mMfZoILX9xO7GnNqe-21" value="DISPENSE CASH" style="ellipse;whiteSpace=wrap;html=1;" parent="1" vertex="1">
          <mxGeometry x="570" y="40" width="120" height="80" as="geometry" />
        </mxCell>
        <mxCell id="Q07mMfZoILX9xO7GnNqe-36" value="" style="endArrow=block;endSize=16;endFill=0;html=1;rounded=0;exitX=0.433;exitY=-0.008;exitDx=0;exitDy=0;exitPerimeter=0;entryX=0;entryY=0.5;entryDx=0;entryDy=0;" parent="1" source="Q07mMfZoILX9xO7GnNqe-20" target="Q07mMfZoILX9xO7GnNqe-6" edge="1">
          <mxGeometry width="160" relative="1" as="geometry">
            <mxPoint x="320" y="210" as="sourcePoint" />
            <mxPoint x="280" y="20" as="targetPoint" />
          </mxGeometry>
        </mxCell>
        <mxCell id="Q07mMfZoILX9xO7GnNqe-39" value="" style="endArrow=block;endSize=16;endFill=0;html=1;rounded=0;entryX=0;entryY=0.5;entryDx=0;entryDy=0;" parent="1" source="Q07mMfZoILX9xO7GnNqe-20" target="Q07mMfZoILX9xO7GnNqe-7" edge="1">
          <mxGeometry x="0.0022" width="160" relative="1" as="geometry">
            <mxPoint x="250" y="210" as="sourcePoint" />
            <mxPoint x="210" y="210" as="targetPoint" />
            <mxPoint as="offset" />
          </mxGeometry>
        </mxCell>
        <mxCell id="Q07mMfZoILX9xO7GnNqe-40" value="" style="endArrow=block;endSize=16;endFill=0;html=1;rounded=0;exitX=0.939;exitY=0.75;exitDx=0;exitDy=0;exitPerimeter=0;entryX=0;entryY=0.5;entryDx=0;entryDy=0;" parent="1" source="Q07mMfZoILX9xO7GnNqe-20" target="Q07mMfZoILX9xO7GnNqe-9" edge="1">
          <mxGeometry width="160" relative="1" as="geometry">
            <mxPoint x="375" y="210" as="sourcePoint" />
            <mxPoint x="310" y="260" as="targetPoint" />
          </mxGeometry>
        </mxCell>
        <mxCell id="Q07mMfZoILX9xO7GnNqe-41" value="" style="endArrow=block;endSize=16;endFill=0;html=1;rounded=0;entryX=0;entryY=0.5;entryDx=0;entryDy=0;exitX=0.5;exitY=1;exitDx=0;exitDy=0;" parent="1" source="Q07mMfZoILX9xO7GnNqe-20" target="Q07mMfZoILX9xO7GnNqe-8" edge="1">
          <mxGeometry width="160" relative="1" as="geometry">
            <mxPoint x="110" y="420" as="sourcePoint" />
            <mxPoint x="262" y="232" as="targetPoint" />
          </mxGeometry>
        </mxCell>
      </root>
    </mxGraphModel>
  </diagram>
  <diagram id="Z4Kaz3fefgw1OqLgaGWW" name="sequence ATM">
    <mxGraphModel dx="794" dy="1592" grid="1" gridSize="10" guides="1" tooltips="1" connect="1" arrows="1" fold="1" page="1" pageScale="1" pageWidth="850" pageHeight="1100" math="0" shadow="0">
      <root>
        <mxCell id="0" />
        <mxCell id="1" parent="0" />
        <mxCell id="-qFKtqwtDoOTWJe8QdyN-1" value="&lt;span style=&quot;color: rgba(0, 0, 0, 0); font-family: monospace; font-size: 0px; text-align: start;&quot;&gt;%3CmxGraphModel%3E%3Croot%3E%3CmxCell%20id%3D%220%22%2F%3E%3CmxCell%20id%3D%221%22%20parent%3D%220%22%2F%3E%3CmxCell%20id%3D%222%22%20style%3D%22edgeStyle%3DorthogonalEdgeStyle%3Brounded%3D0%3BorthogonalLoop%3D1%3BjettySize%3Dauto%3Bhtml%3D1%3B%22%20edge%3D%221%22%20source%3D%223%22%20target%3D%2215%22%20parent%3D%221%22%3E%3CmxGeometry%20relative%3D%221%22%20as%3D%22geometry%22%3E%3CmxPoint%20x%3D%22160%22%20y%3D%22240%22%20as%3D%22targetPoint%22%2F%3E%3C%2FmxGeometry%3E%3C%2FmxCell%3E%3CmxCell%20id%3D%223%22%20value%3D%22customer%22%20style%3D%22shape%3DumlActor%3BverticalLabelPosition%3Dbottom%3BverticalAlign%3Dtop%3Bhtml%3D1%3B%22%20vertex%3D%221%22%20parent%3D%221%22%3E%3CmxGeometry%20x%3D%2270%22%20y%3D%22210%22%20width%3D%2230%22%20height%3D%2260%22%20as%3D%22geometry%22%2F%3E%3C%2FmxCell%3E%3CmxCell%20id%3D%224%22%20value%3D%22%22%20style%3D%22edgeStyle%3DorthogonalEdgeStyle%3Brounded%3D0%3BorthogonalLoop%3D1%3BjettySize%3Dauto%3Bhtml%3D1%3B%22%20edge%3D%221%22%20source%3D%225%22%20target%3D%227%22%20parent%3D%221%22%3E%3CmxGeometry%20relative%3D%221%22%20as%3D%22geometry%22%2F%3E%3C%2FmxCell%3E%3CmxCell%20id%3D%225%22%20value%3D%22ENTER%20PIN%22%20style%3D%22ellipse%3BwhiteSpace%3Dwrap%3Bhtml%3D1%3B%22%20vertex%3D%221%22%20parent%3D%221%22%3E%3CmxGeometry%20x%3D%22365%22%20y%3D%2240%22%20width%3D%22120%22%20height%3D%2280%22%20as%3D%22geometry%22%2F%3E%3C%2FmxCell%3E%3CmxCell%20id%3D%226%22%20value%3D%22%22%20style%3D%22edgeStyle%3DorthogonalEdgeStyle%3Brounded%3D0%3BorthogonalLoop%3D1%3BjettySize%3Dauto%3Bhtml%3D1%3B%22%20edge%3D%221%22%20source%3D%227%22%20target%3D%2211%22%20parent%3D%221%22%3E%3CmxGeometry%20relative%3D%221%22%20as%3D%22geometry%22%2F%3E%3C%2FmxCell%3E%3CmxCell%20id%3D%227%22%20value%3D%22SELECT%20ACCOUNT%22%20style%3D%22ellipse%3BwhiteSpace%3Dwrap%3Bhtml%3D1%3B%22%20vertex%3D%221%22%20parent%3D%221%22%3E%3CmxGeometry%20x%3D%22365%22%20y%3D%22160%22%20width%3D%22120%22%20height%3D%2280%22%20as%3D%22geometry%22%2F%3E%3C%2FmxCell%3E%3CmxCell%20id%3D%228%22%20style%3D%22edgeStyle%3DorthogonalEdgeStyle%3Brounded%3D0%3BorthogonalLoop%3D1%3BjettySize%3Dauto%3Bhtml%3D1%3BentryX%3D0%3BentryY%3D0.5%3BentryDx%3D0%3BentryDy%3D0%3B%22%20edge%3D%221%22%20source%3D%229%22%20target%3D%2217%22%20parent%3D%221%22%3E%3CmxGeometry%20relative%3D%221%22%20as%3D%22geometry%22%2F%3E%3C%2FmxCell%3E%3CmxCell%20id%3D%229%22%20value%3D%22ENTER%20Withdrawal%20Amount%22%20style%3D%22ellipse%3BwhiteSpace%3Dwrap%3Bhtml%3D1%3B%22%20vertex%3D%221%22%20parent%3D%221%22%3E%3CmxGeometry%20x%3D%22365%22%20y%3D%22390%22%20width%3D%22120%22%20height%3D%2280%22%20as%3D%22geometry%22%2F%3E%3C%2FmxCell%3E%3CmxCell%20id%3D%2210%22%20value%3D%22%22%20style%3D%22edgeStyle%3DorthogonalEdgeStyle%3Brounded%3D0%3BorthogonalLoop%3D1%3BjettySize%3Dauto%3Bhtml%3D1%3B%22%20edge%3D%221%22%20source%3D%2211%22%20target%3D%229%22%20parent%3D%221%22%3E%3CmxGeometry%20relative%3D%221%22%20as%3D%22geometry%22%2F%3E%3C%2FmxCell%3E%3CmxCell%20id%3D%2211%22%20value%3D%22SELECT%20Withdrawal%20Option%22%20style%3D%22ellipse%3BwhiteSpace%3Dwrap%3Bhtml%3D1%3B%22%20vertex%3D%221%22%20parent%3D%221%22%3E%3CmxGeometry%20x%3D%22365%22%20y%3D%22280%22%20width%3D%22120%22%20height%3D%2280%22%20as%3D%22geometry%22%2F%3E%3C%2FmxCell%3E%3CmxCell%20id%3D%2212%22%20value%3D%22%22%20style%3D%22edgeStyle%3DorthogonalEdgeStyle%3Brounded%3D0%3BorthogonalLoop%3D1%3BjettySize%3Dauto%3Bhtml%3D1%3B%22%20edge%3D%221%22%20source%3D%2213%22%20target%3D%2214%22%20parent%3D%221%22%3E%3CmxGeometry%20relative%3D%221%22%20as%3D%22geometry%22%2F%3E%3C%2FmxCell%3E%3CmxCell%20id%3D%2213%22%20value%3D%22PRINT%20RECEIPT%22%20style%3D%22ellipse%3BwhiteSpace%3Dwrap%3Bhtml%3D1%3B%22%20vertex%3D%221%22%20parent%3D%221%22%3E%3CmxGeometry%20x%3D%22570%22%20y%3D%22160%22%20width%3D%22120%22%20height%3D%2280%22%20as%3D%22geometry%22%2F%3E%3C%2FmxCell%3E%3CmxCell%20id%3D%2214%22%20value%3D%22END%20TRANSACTION%22%20style%3D%22ellipse%3BwhiteSpace%3Dwrap%3Bhtml%3D1%3B%22%20vertex%3D%221%22%20parent%3D%221%22%3E%3CmxGeometry%20x%3D%22570%22%20y%3D%22280%22%20width%3D%22120%22%20height%3D%2280%22%20as%3D%22geometry%22%2F%3E%3C%2FmxCell%3E%3CmxCell%20id%3D%2215%22%20value%3D%22INSERT%20CARD%22%20style%3D%22ellipse%3BwhiteSpace%3Dwrap%3Bhtml%3D1%3B%22%20vertex%3D%221%22%20parent%3D%221%22%3E%3CmxGeometry%20x%3D%22140%22%20y%3D%22200%22%20width%3D%22120%22%20height%3D%2280%22%20as%3D%22geometry%22%2F%3E%3C%2FmxCell%3E%3CmxCell%20id%3D%2216%22%20value%3D%22%22%20style%3D%22edgeStyle%3DorthogonalEdgeStyle%3Brounded%3D0%3BorthogonalLoop%3D1%3BjettySize%3Dauto%3Bhtml%3D1%3B%22%20edge%3D%221%22%20source%3D%2217%22%20target%3D%2213%22%20parent%3D%221%22%3E%3CmxGeometry%20relative%3D%221%22%20as%3D%22geometry%22%2F%3E%3C%2FmxCell%3E%3CmxCell%20id%3D%2217%22%20value%3D%22DISPENSE%20CASH%22%20style%3D%22ellipse%3BwhiteSpace%3Dwrap%3Bhtml%3D1%3B%22%20vertex%3D%221%22%20parent%3D%221%22%3E%3CmxGeometry%20x%3D%22570%22%20y%3D%2240%22%20width%3D%22120%22%20height%3D%2280%22%20as%3D%22geometry%22%2F%3E%3C%2FmxCell%3E%3CmxCell%20id%3D%2218%22%20value%3D%22Extends%22%20style%3D%22endArrow%3Dblock%3BendSize%3D16%3BendFill%3D0%3Bhtml%3D1%3Brounded%3D0%3BexitX%3D0%3BexitY%3D0.5%3BexitDx%3D0%3BexitDy%3D0%3BentryX%3D0.5%3BentryY%3D0%3BentryDx%3D0%3BentryDy%3D0%3B%22%20edge%3D%221%22%20source%3D%225%22%20target%3D%2215%22%20parent%3D%221%22%3E%3CmxGeometry%20width%3D%22160%22%20relative%3D%221%22%20as%3D%22geometry%22%3E%3CmxPoint%20x%3D%22320%22%20y%3D%22210%22%20as%3D%22sourcePoint%22%2F%3E%3CmxPoint%20x%3D%22320%22%20y%3D%22270%22%20as%3D%22targetPoint%22%2F%3E%3C%2FmxGeometry%3E%3C%2FmxCell%3E%3CmxCell%20id%3D%2219%22%20value%3D%22Extends%22%20style%3D%22endArrow%3Dblock%3BendSize%3D16%3BendFill%3D0%3Bhtml%3D1%3Brounded%3D0%3BexitX%3D0%3BexitY%3D0.5%3BexitDx%3D0%3BexitDy%3D0%3B%22%20edge%3D%221%22%20source%3D%227%22%20target%3D%2215%22%20parent%3D%221%22%3E%3CmxGeometry%20width%3D%22160%22%20relative%3D%221%22%20as%3D%22geometry%22%3E%3CmxPoint%20x%3D%22375%22%20y%3D%2290%22%20as%3D%22sourcePoint%22%2F%3E%3CmxPoint%20x%3D%22210%22%20y%3D%22210%22%20as%3D%22targetPoint%22%2F%3E%3C%2FmxGeometry%3E%3C%2FmxCell%3E%3CmxCell%20id%3D%2220%22%20value%3D%22Extends%22%20style%3D%22endArrow%3Dblock%3BendSize%3D16%3BendFill%3D0%3Bhtml%3D1%3Brounded%3D0%3BexitX%3D0%3BexitY%3D0.5%3BexitDx%3D0%3BexitDy%3D0%3BentryX%3D1%3BentryY%3D1%3BentryDx%3D0%3BentryDy%3D0%3B%22%20edge%3D%221%22%20source%3D%2211%22%20target%3D%2215%22%20parent%3D%221%22%3E%3CmxGeometry%20width%3D%22160%22%20relative%3D%221%22%20as%3D%22geometry%22%3E%3CmxPoint%20x%3D%22375%22%20y%3D%22210%22%20as%3D%22sourcePoint%22%2F%3E%3CmxPoint%20x%3D%22252%22%20y%3D%22222%22%20as%3D%22targetPoint%22%2F%3E%3C%2FmxGeometry%3E%3C%2FmxCell%3E%3CmxCell%20id%3D%2221%22%20value%3D%22Extends%22%20style%3D%22endArrow%3Dblock%3BendSize%3D16%3BendFill%3D0%3Bhtml%3D1%3Brounded%3D0%3BexitX%3D0%3BexitY%3D0.5%3BexitDx%3D0%3BexitDy%3D0%3BentryX%3D0.5%3BentryY%3D1%3BentryDx%3D0%3BentryDy%3D0%3B%22%20edge%3D%221%22%20source%3D%229%22%20target%3D%2215%22%20parent%3D%221%22%3E%3CmxGeometry%20width%3D%22160%22%20relative%3D%221%22%20as%3D%22geometry%22%3E%3CmxPoint%20x%3D%22385%22%20y%3D%22220%22%20as%3D%22sourcePoint%22%2F%3E%3CmxPoint%20x%3D%22262%22%20y%3D%22232%22%20as%3D%22targetPoint%22%2F%3E%3C%2FmxGeometry%3E%3C%2FmxCell%3E%3C%2Froot%3E%3C%2FmxGraphModel%3E&lt;/span&gt;" style="text;html=1;align=center;verticalAlign=middle;resizable=0;points=[];autosize=1;strokeColor=none;fillColor=none;" parent="1" vertex="1">
          <mxGeometry x="70" y="48" width="20" height="30" as="geometry" />
        </mxCell>
        <mxCell id="4J4sOY46HIkPXeR45VWV-1" value="DATABASE" style="html=1;whiteSpace=wrap;" vertex="1" parent="1">
          <mxGeometry x="410" y="-7" width="110" height="50" as="geometry" />
        </mxCell>
        <mxCell id="4J4sOY46HIkPXeR45VWV-2" value="ATM" style="html=1;whiteSpace=wrap;" vertex="1" parent="1">
          <mxGeometry x="230" y="-7" width="70" height="50" as="geometry" />
        </mxCell>
        <mxCell id="4J4sOY46HIkPXeR45VWV-3" value="VALIDATE CARD" style="html=1;whiteSpace=wrap;" vertex="1" parent="1">
          <mxGeometry x="680" y="120" width="110" height="50" as="geometry" />
        </mxCell>
        <mxCell id="4J4sOY46HIkPXeR45VWV-4" value="HANDLE REQUEST" style="html=1;whiteSpace=wrap;" vertex="1" parent="1">
          <mxGeometry x="655" y="230" width="160" height="40" as="geometry" />
        </mxCell>
        <mxCell id="4J4sOY46HIkPXeR45VWV-5" value="COMPLETE TRANSACTION" style="html=1;whiteSpace=wrap;" vertex="1" parent="1">
          <mxGeometry x="630" y="360" width="160" height="50" as="geometry" />
        </mxCell>
        <mxCell id="4J4sOY46HIkPXeR45VWV-6" value="" style="html=1;points=[[0,0,0,0,5],[0,1,0,0,-5],[1,0,0,0,5],[1,1,0,0,-5]];perimeter=orthogonalPerimeter;outlineConnect=0;targetShapes=umlLifeline;portConstraint=eastwest;newEdgeStyle={&quot;curved&quot;:0,&quot;rounded&quot;:0};" vertex="1" parent="1">
          <mxGeometry x="120" y="80" width="10" height="110" as="geometry" />
        </mxCell>
        <mxCell id="4J4sOY46HIkPXeR45VWV-7" value="" style="html=1;points=[[0,0,0,0,5],[0,1,0,0,-5],[1,0,0,0,5],[1,1,0,0,-5]];perimeter=orthogonalPerimeter;outlineConnect=0;targetShapes=umlLifeline;portConstraint=eastwest;newEdgeStyle={&quot;curved&quot;:0,&quot;rounded&quot;:0};" vertex="1" parent="1">
          <mxGeometry x="120" y="210" width="10" height="80" as="geometry" />
        </mxCell>
        <mxCell id="4J4sOY46HIkPXeR45VWV-8" value="" style="html=1;points=[[0,0,0,0,5],[0,1,0,0,-5],[1,0,0,0,5],[1,1,0,0,-5]];perimeter=orthogonalPerimeter;outlineConnect=0;targetShapes=umlLifeline;portConstraint=eastwest;newEdgeStyle={&quot;curved&quot;:0,&quot;rounded&quot;:0};" vertex="1" parent="1">
          <mxGeometry x="120" y="310" width="10" height="40" as="geometry" />
        </mxCell>
        <mxCell id="4J4sOY46HIkPXeR45VWV-9" value="" style="html=1;points=[[0,0,0,0,5],[0,1,0,0,-5],[1,0,0,0,5],[1,1,0,0,-5]];perimeter=orthogonalPerimeter;outlineConnect=0;targetShapes=umlLifeline;portConstraint=eastwest;newEdgeStyle={&quot;curved&quot;:0,&quot;rounded&quot;:0};" vertex="1" parent="1">
          <mxGeometry x="120" y="360" width="10" height="80" as="geometry" />
        </mxCell>
        <mxCell id="4J4sOY46HIkPXeR45VWV-16" value="" style="html=1;points=[[0,0,0,0,5],[0,1,0,0,-5],[1,0,0,0,5],[1,1,0,0,-5]];perimeter=orthogonalPerimeter;outlineConnect=0;targetShapes=umlLifeline;portConstraint=eastwest;newEdgeStyle={&quot;curved&quot;:0,&quot;rounded&quot;:0};" vertex="1" parent="1">
          <mxGeometry x="260" y="80" width="10" height="110" as="geometry" />
        </mxCell>
        <mxCell id="4J4sOY46HIkPXeR45VWV-17" value="" style="html=1;points=[[0,0,0,0,5],[0,1,0,0,-5],[1,0,0,0,5],[1,1,0,0,-5]];perimeter=orthogonalPerimeter;outlineConnect=0;targetShapes=umlLifeline;portConstraint=eastwest;newEdgeStyle={&quot;curved&quot;:0,&quot;rounded&quot;:0};" vertex="1" parent="1">
          <mxGeometry x="260" y="210" width="10" height="140" as="geometry" />
        </mxCell>
        <mxCell id="4J4sOY46HIkPXeR45VWV-18" value="" style="html=1;points=[[0,0,0,0,5],[0,1,0,0,-5],[1,0,0,0,5],[1,1,0,0,-5]];perimeter=orthogonalPerimeter;outlineConnect=0;targetShapes=umlLifeline;portConstraint=eastwest;newEdgeStyle={&quot;curved&quot;:0,&quot;rounded&quot;:0};" vertex="1" parent="1">
          <mxGeometry x="260" y="360" width="10" height="80" as="geometry" />
        </mxCell>
        <mxCell id="4J4sOY46HIkPXeR45VWV-23" value="Actor" style="shape=umlActor;verticalLabelPosition=bottom;verticalAlign=top;html=1;" vertex="1" parent="1">
          <mxGeometry x="110" y="-12" width="30" height="60" as="geometry" />
        </mxCell>
        <mxCell id="4J4sOY46HIkPXeR45VWV-26" value="" style="endArrow=none;html=1;rounded=0;" edge="1" parent="1" target="4J4sOY46HIkPXeR45VWV-6">
          <mxGeometry width="50" height="50" relative="1" as="geometry">
            <mxPoint x="125" y="210" as="sourcePoint" />
            <mxPoint x="140" y="180" as="targetPoint" />
          </mxGeometry>
        </mxCell>
        <mxCell id="4J4sOY46HIkPXeR45VWV-29" value="" style="endArrow=none;html=1;rounded=0;" edge="1" parent="1">
          <mxGeometry width="50" height="50" relative="1" as="geometry">
            <mxPoint x="124.5" y="310" as="sourcePoint" />
            <mxPoint x="125" y="290" as="targetPoint" />
          </mxGeometry>
        </mxCell>
        <mxCell id="4J4sOY46HIkPXeR45VWV-31" value="" style="endArrow=none;html=1;rounded=0;" edge="1" parent="1" source="4J4sOY46HIkPXeR45VWV-18">
          <mxGeometry width="50" height="50" relative="1" as="geometry">
            <mxPoint x="360" y="420" as="sourcePoint" />
            <mxPoint x="265" y="350" as="targetPoint" />
          </mxGeometry>
        </mxCell>
        <mxCell id="4J4sOY46HIkPXeR45VWV-32" value="" style="endArrow=none;html=1;rounded=0;" edge="1" parent="1">
          <mxGeometry width="50" height="50" relative="1" as="geometry">
            <mxPoint x="264.5" y="210" as="sourcePoint" />
            <mxPoint x="264.5" y="190" as="targetPoint" />
          </mxGeometry>
        </mxCell>
        <mxCell id="4J4sOY46HIkPXeR45VWV-33" value="" style="endArrow=none;html=1;rounded=0;" edge="1" parent="1">
          <mxGeometry width="50" height="50" relative="1" as="geometry">
            <mxPoint x="125" y="360" as="sourcePoint" />
            <mxPoint x="125" y="350" as="targetPoint" />
          </mxGeometry>
        </mxCell>
        <mxCell id="KNNh9Pq9vw3aqQ3LN0QA-1" value="" style="endArrow=classic;html=1;rounded=0;" edge="1" parent="1">
          <mxGeometry width="50" height="50" relative="1" as="geometry">
            <mxPoint x="130" y="90" as="sourcePoint" />
            <mxPoint x="260" y="90" as="targetPoint" />
          </mxGeometry>
        </mxCell>
        <mxCell id="KNNh9Pq9vw3aqQ3LN0QA-8" value="" style="endArrow=classic;html=1;rounded=0;" edge="1" parent="1">
          <mxGeometry width="50" height="50" relative="1" as="geometry">
            <mxPoint x="260" y="130" as="sourcePoint" />
            <mxPoint x="130" y="130" as="targetPoint" />
          </mxGeometry>
        </mxCell>
        <mxCell id="KNNh9Pq9vw3aqQ3LN0QA-9" value="" style="endArrow=classic;html=1;rounded=0;" edge="1" parent="1" source="4J4sOY46HIkPXeR45VWV-17">
          <mxGeometry width="50" height="50" relative="1" as="geometry">
            <mxPoint x="220" y="340" as="sourcePoint" />
            <mxPoint x="130" y="340" as="targetPoint" />
          </mxGeometry>
        </mxCell>
        <mxCell id="KNNh9Pq9vw3aqQ3LN0QA-11" value="" style="endArrow=classic;html=1;rounded=0;" edge="1" parent="1" source="4J4sOY46HIkPXeR45VWV-16">
          <mxGeometry width="50" height="50" relative="1" as="geometry">
            <mxPoint x="200" y="160" as="sourcePoint" />
            <mxPoint x="130" y="160" as="targetPoint" />
          </mxGeometry>
        </mxCell>
        <mxCell id="KNNh9Pq9vw3aqQ3LN0QA-12" value="" style="endArrow=classic;html=1;rounded=0;" edge="1" parent="1" source="4J4sOY46HIkPXeR45VWV-17">
          <mxGeometry width="50" height="50" relative="1" as="geometry">
            <mxPoint x="230" y="249" as="sourcePoint" />
            <mxPoint x="130" y="249" as="targetPoint" />
          </mxGeometry>
        </mxCell>
        <mxCell id="KNNh9Pq9vw3aqQ3LN0QA-13" value="" style="endArrow=classic;html=1;rounded=0;" edge="1" parent="1">
          <mxGeometry width="50" height="50" relative="1" as="geometry">
            <mxPoint x="260" y="189" as="sourcePoint" />
            <mxPoint x="130" y="189" as="targetPoint" />
          </mxGeometry>
        </mxCell>
        <mxCell id="4Cn7BGHQsBzxTWXCKMRt-1" value="" style="html=1;points=[[0,0,0,0,5],[0,1,0,0,-5],[1,0,0,0,5],[1,1,0,0,-5]];perimeter=orthogonalPerimeter;outlineConnect=0;targetShapes=umlLifeline;portConstraint=eastwest;newEdgeStyle={&quot;curved&quot;:0,&quot;rounded&quot;:0};" vertex="1" parent="1">
          <mxGeometry x="460" y="90" width="10" height="40" as="geometry" />
        </mxCell>
        <mxCell id="4Cn7BGHQsBzxTWXCKMRt-2" value="" style="html=1;points=[[0,0,0,0,5],[0,1,0,0,-5],[1,0,0,0,5],[1,1,0,0,-5]];perimeter=orthogonalPerimeter;outlineConnect=0;targetShapes=umlLifeline;portConstraint=eastwest;newEdgeStyle={&quot;curved&quot;:0,&quot;rounded&quot;:0};" vertex="1" parent="1">
          <mxGeometry x="460" y="210" width="10" height="40" as="geometry" />
        </mxCell>
        <mxCell id="4Cn7BGHQsBzxTWXCKMRt-3" value="" style="html=1;points=[[0,0,0,0,5],[0,1,0,0,-5],[1,0,0,0,5],[1,1,0,0,-5]];perimeter=orthogonalPerimeter;outlineConnect=0;targetShapes=umlLifeline;portConstraint=eastwest;newEdgeStyle={&quot;curved&quot;:0,&quot;rounded&quot;:0};" vertex="1" parent="1">
          <mxGeometry x="460" y="290" width="10" height="40" as="geometry" />
        </mxCell>
        <mxCell id="4Cn7BGHQsBzxTWXCKMRt-4" value="" style="endArrow=classic;html=1;rounded=0;" edge="1" parent="1" source="4J4sOY46HIkPXeR45VWV-7">
          <mxGeometry width="50" height="50" relative="1" as="geometry">
            <mxPoint x="190" y="220" as="sourcePoint" />
            <mxPoint x="260" y="220" as="targetPoint" />
          </mxGeometry>
        </mxCell>
        <mxCell id="4Cn7BGHQsBzxTWXCKMRt-5" value="" style="endArrow=classic;html=1;rounded=0;" edge="1" parent="1">
          <mxGeometry width="50" height="50" relative="1" as="geometry">
            <mxPoint x="270" y="100" as="sourcePoint" />
            <mxPoint x="460" y="100" as="targetPoint" />
          </mxGeometry>
        </mxCell>
        <mxCell id="4Cn7BGHQsBzxTWXCKMRt-6" value="" style="endArrow=classic;html=1;rounded=0;exitX=0;exitY=1;exitDx=0;exitDy=-5;exitPerimeter=0;" edge="1" parent="1">
          <mxGeometry width="50" height="50" relative="1" as="geometry">
            <mxPoint x="460" y="119" as="sourcePoint" />
            <mxPoint x="270" y="119" as="targetPoint" />
          </mxGeometry>
        </mxCell>
        <mxCell id="4Cn7BGHQsBzxTWXCKMRt-7" value="" style="endArrow=classic;html=1;rounded=0;" edge="1" parent="1">
          <mxGeometry width="50" height="50" relative="1" as="geometry">
            <mxPoint x="130" y="390" as="sourcePoint" />
            <mxPoint x="260" y="390" as="targetPoint" />
          </mxGeometry>
        </mxCell>
        <mxCell id="4Cn7BGHQsBzxTWXCKMRt-8" value="" style="endArrow=classic;html=1;rounded=0;exitX=-0.133;exitY=0.592;exitDx=0;exitDy=0;exitPerimeter=0;" edge="1" parent="1" source="4J4sOY46HIkPXeR45VWV-18" target="4J4sOY46HIkPXeR45VWV-9">
          <mxGeometry width="50" height="50" relative="1" as="geometry">
            <mxPoint x="250" y="410" as="sourcePoint" />
            <mxPoint x="260" y="410" as="targetPoint" />
          </mxGeometry>
        </mxCell>
        <mxCell id="4Cn7BGHQsBzxTWXCKMRt-9" value="" style="endArrow=classic;html=1;rounded=0;exitX=0;exitY=0;exitDx=0;exitDy=5;exitPerimeter=0;" edge="1" parent="1" source="4J4sOY46HIkPXeR45VWV-18" target="4J4sOY46HIkPXeR45VWV-9">
          <mxGeometry width="50" height="50" relative="1" as="geometry">
            <mxPoint x="250" y="370" as="sourcePoint" />
            <mxPoint x="260" y="370" as="targetPoint" />
          </mxGeometry>
        </mxCell>
        <mxCell id="4Cn7BGHQsBzxTWXCKMRt-10" value="" style="endArrow=classic;html=1;rounded=0;" edge="1" parent="1" target="4J4sOY46HIkPXeR45VWV-17">
          <mxGeometry width="50" height="50" relative="1" as="geometry">
            <mxPoint x="130" y="279.5" as="sourcePoint" />
            <mxPoint x="200" y="279.5" as="targetPoint" />
          </mxGeometry>
        </mxCell>
        <mxCell id="4Cn7BGHQsBzxTWXCKMRt-13" value="" style="endArrow=classic;html=1;rounded=0;" edge="1" parent="1" source="4J4sOY46HIkPXeR45VWV-9">
          <mxGeometry width="50" height="50" relative="1" as="geometry">
            <mxPoint x="190" y="420" as="sourcePoint" />
            <mxPoint x="260" y="420" as="targetPoint" />
          </mxGeometry>
        </mxCell>
        <mxCell id="4Cn7BGHQsBzxTWXCKMRt-14" value="" style="endArrow=classic;html=1;rounded=0;exitX=1;exitY=1;exitDx=0;exitDy=-5;exitPerimeter=0;" edge="1" parent="1" source="4J4sOY46HIkPXeR45VWV-18" target="4J4sOY46HIkPXeR45VWV-9">
          <mxGeometry width="50" height="50" relative="1" as="geometry">
            <mxPoint x="190" y="439" as="sourcePoint" />
            <mxPoint x="260" y="439" as="targetPoint" />
          </mxGeometry>
        </mxCell>
        <mxCell id="4Cn7BGHQsBzxTWXCKMRt-15" value="" style="endArrow=classic;html=1;rounded=0;" edge="1" parent="1">
          <mxGeometry width="50" height="50" relative="1" as="geometry">
            <mxPoint x="320" y="300" as="sourcePoint" />
            <mxPoint x="390" y="300" as="targetPoint" />
          </mxGeometry>
        </mxCell>
        <mxCell id="4Cn7BGHQsBzxTWXCKMRt-16" value="" style="endArrow=classic;html=1;rounded=0;" edge="1" parent="1">
          <mxGeometry width="50" height="50" relative="1" as="geometry">
            <mxPoint x="330" y="220" as="sourcePoint" />
            <mxPoint x="400" y="220" as="targetPoint" />
          </mxGeometry>
        </mxCell>
        <mxCell id="4Cn7BGHQsBzxTWXCKMRt-17" value="CARD" style="text;html=1;align=center;verticalAlign=middle;resizable=0;points=[];autosize=1;strokeColor=none;fillColor=none;" vertex="1" parent="1">
          <mxGeometry x="160" y="70" width="60" height="30" as="geometry" />
        </mxCell>
        <mxCell id="4Cn7BGHQsBzxTWXCKMRt-18" value="CARD NUMBER" style="text;html=1;align=center;verticalAlign=middle;resizable=0;points=[];autosize=1;strokeColor=none;fillColor=none;" vertex="1" parent="1">
          <mxGeometry x="320" y="78" width="110" height="30" as="geometry" />
        </mxCell>
        <mxCell id="4Cn7BGHQsBzxTWXCKMRt-19" value="CARD OK" style="text;html=1;align=center;verticalAlign=middle;resizable=0;points=[];autosize=1;strokeColor=none;fillColor=none;" vertex="1" parent="1">
          <mxGeometry x="330" y="120" width="80" height="30" as="geometry" />
        </mxCell>
        <mxCell id="4Cn7BGHQsBzxTWXCKMRt-21" value="return" style="html=1;verticalAlign=bottom;endArrow=open;dashed=1;endSize=8;curved=0;rounded=0;" edge="1" parent="1" target="4J4sOY46HIkPXeR45VWV-16">
          <mxGeometry relative="1" as="geometry">
            <mxPoint x="680" y="160" as="sourcePoint" />
            <mxPoint x="600" y="160" as="targetPoint" />
          </mxGeometry>
        </mxCell>
        <mxCell id="4Cn7BGHQsBzxTWXCKMRt-22" value="return" style="html=1;verticalAlign=bottom;endArrow=open;dashed=1;endSize=8;curved=0;rounded=0;" edge="1" parent="1" target="4J4sOY46HIkPXeR45VWV-17">
          <mxGeometry relative="1" as="geometry">
            <mxPoint x="655" y="260" as="sourcePoint" />
            <mxPoint x="575" y="260" as="targetPoint" />
          </mxGeometry>
        </mxCell>
        <mxCell id="4Cn7BGHQsBzxTWXCKMRt-23" value="return" style="html=1;verticalAlign=bottom;endArrow=open;dashed=1;endSize=8;curved=0;rounded=0;" edge="1" parent="1" target="4J4sOY46HIkPXeR45VWV-18">
          <mxGeometry relative="1" as="geometry">
            <mxPoint x="640" y="380" as="sourcePoint" />
            <mxPoint x="575" y="349" as="targetPoint" />
            <Array as="points">
              <mxPoint x="400" y="380" />
            </Array>
          </mxGeometry>
        </mxCell>
        <mxCell id="4Cn7BGHQsBzxTWXCKMRt-25" value="PIN REQUEST" style="text;html=1;align=center;verticalAlign=middle;resizable=0;points=[];autosize=1;strokeColor=none;fillColor=none;" vertex="1" parent="1">
          <mxGeometry x="120" y="98" width="100" height="30" as="geometry" />
        </mxCell>
        <mxCell id="4Cn7BGHQsBzxTWXCKMRt-28" value="PIN" style="text;html=1;align=center;verticalAlign=middle;resizable=0;points=[];autosize=1;strokeColor=none;fillColor=none;" vertex="1" parent="1">
          <mxGeometry x="160" y="128" width="40" height="30" as="geometry" />
        </mxCell>
        <mxCell id="4Cn7BGHQsBzxTWXCKMRt-30" value="OPTIONS" style="text;html=1;align=center;verticalAlign=middle;resizable=0;points=[];autosize=1;strokeColor=none;fillColor=none;" vertex="1" parent="1">
          <mxGeometry x="110" y="158" width="80" height="30" as="geometry" />
        </mxCell>
        <mxCell id="4Cn7BGHQsBzxTWXCKMRt-33" value="Withdraw&amp;nbsp; request" style="text;html=1;align=center;verticalAlign=middle;resizable=0;points=[];autosize=1;strokeColor=none;fillColor=none;" vertex="1" parent="1">
          <mxGeometry x="110" y="188" width="120" height="30" as="geometry" />
        </mxCell>
        <mxCell id="4Cn7BGHQsBzxTWXCKMRt-35" value="amount request" style="text;html=1;align=center;verticalAlign=middle;resizable=0;points=[];autosize=1;strokeColor=none;fillColor=none;" vertex="1" parent="1">
          <mxGeometry x="105" y="218" width="110" height="30" as="geometry" />
        </mxCell>
        <mxCell id="4Cn7BGHQsBzxTWXCKMRt-36" value="card" style="text;html=1;align=center;verticalAlign=middle;resizable=0;points=[];autosize=1;strokeColor=none;fillColor=none;" vertex="1" parent="1">
          <mxGeometry x="155" y="248" width="50" height="30" as="geometry" />
        </mxCell>
      </root>
    </mxGraphModel>
  </diagram>
</mxfile>
